<svg width="360" height="534" viewBox="0 0 360 534" fill="none" xmlns="http://www.w3.org/2000/svg">
<path d="M1.21844 90.4979C15.2099 65.1585 14.4604 59.7286 38.6957 37.2335C62.931 14.7383 94.6617 9.82553 94.6617 9.82553C94.6617 9.82553 151.627 -1.79391e-05 181.109 0C210.591 1.79391e-05 223.084 40.8534 248.568 54.8159C274.053 68.7784 317.526 61.0214 317.526 61.0214L361 46.0246C361 46.0246 383.5 446.5 361 464.5C338.5 482.5 341 482.5 308 488C275 493.5 231.5 493.5 181.109 495C130.718 496.5 101.262 490.5 51 504.5C0.737747 518.5 1.21844 533.5 1.21844 533.5C1.21844 533.5 -12.7731 115.837 1.21844 90.4979Z" fill="url(#paint0_linear_454_19)"/>
<defs>
<linearGradient id="paint0_linear_454_19" x1="1.21847" y1="242.017" x2="363.134" y2="132.731" gradientUnits="userSpaceOnUse">
<stop stop-color="#900505"/>
<stop offset="1" stop-color="#FF6B00"/>
</linearGradient>
</defs>
</svg>
