<svg width="478" height="53" viewBox="0 0 478 53" fill="none" xmlns="http://www.w3.org/2000/svg">
<g filter="url(#filter0_d_580_3)">
<mask id="path-1-outside-1_580_3" maskUnits="userSpaceOnUse" x="1" y="1" width="474" height="49" fill="black">
<rect fill="white" x="1" y="1" width="474" height="49"/>
<path d="M2.312 48V3.2H10.888L37.32 35.456H33.16V3.2H43.4V48H34.888L8.392 15.744H12.552V48H2.312ZM75.7595 48.768C72.2182 48.768 68.9328 48.192 65.9035 47.04C62.9168 45.888 60.3142 44.2667 58.0955 42.176C55.9195 40.0853 54.2128 37.632 52.9755 34.816C51.7808 32 51.1835 28.928 51.1835 25.6C51.1835 22.272 51.7808 19.2 52.9755 16.384C54.2128 13.568 55.9408 11.1147 58.1595 9.024C60.3782 6.93333 62.9808 5.312 65.9675 4.16C68.9542 3.008 72.1968 2.432 75.6955 2.432C79.2368 2.432 82.4795 3.008 85.4235 4.16C88.4102 5.312 90.9915 6.93333 93.1675 9.024C95.3862 11.1147 97.1142 13.568 98.3515 16.384C99.5888 19.1573 100.208 22.2293 100.208 25.6C100.208 28.928 99.5888 32.0213 98.3515 34.88C97.1142 37.696 95.3862 40.1493 93.1675 42.24C90.9915 44.288 88.4102 45.888 85.4235 47.04C82.4795 48.192 79.2582 48.768 75.7595 48.768ZM75.6955 39.936C77.7008 39.936 79.5355 39.5947 81.1995 38.912C82.9062 38.2293 84.3995 37.248 85.6795 35.968C86.9595 34.688 87.9408 33.1733 88.6235 31.424C89.3488 29.6747 89.7115 27.7333 89.7115 25.6C89.7115 23.4667 89.3488 21.5253 88.6235 19.776C87.9408 18.0267 86.9595 16.512 85.6795 15.232C84.4422 13.952 82.9702 12.9707 81.2635 12.288C79.5568 11.6053 77.7008 11.264 75.6955 11.264C73.6902 11.264 71.8342 11.6053 70.1275 12.288C68.4635 12.9707 66.9915 13.952 65.7115 15.232C64.4315 16.512 63.4288 18.0267 62.7035 19.776C62.0208 21.5253 61.6795 23.4667 61.6795 25.6C61.6795 27.6907 62.0208 29.632 62.7035 31.424C63.4288 33.1733 64.4102 34.688 65.6475 35.968C66.9275 37.248 68.4208 38.2293 70.1275 38.912C71.8342 39.5947 73.6902 39.936 75.6955 39.936ZM116.655 48V11.648H102.319V3.2H141.359V11.648H127.023V48H116.655Z"/>
<path d="M138.799 48L158.767 3.2H169.007L189.039 48H178.159L161.775 8.448H165.871L149.423 48H138.799ZM148.783 38.4L151.535 30.528H174.575L177.391 38.4H148.783Z"/>
<path d="M208.407 48.768C204.823 48.768 201.388 48.2987 198.103 47.36C194.818 46.3787 192.172 45.12 190.167 43.584L193.687 35.776C195.607 37.1413 197.868 38.272 200.471 39.168C203.116 40.0213 205.783 40.448 208.471 40.448C210.519 40.448 212.162 40.256 213.399 39.872C214.679 39.4453 215.618 38.8693 216.215 38.144C216.812 37.4187 217.111 36.5867 217.111 35.648C217.111 34.4533 216.642 33.5147 215.703 32.832C214.764 32.1067 213.527 31.5307 211.991 31.104C210.455 30.6347 208.748 30.208 206.871 29.824C205.036 29.3973 203.18 28.8853 201.303 28.288C199.468 27.6907 197.783 26.9227 196.247 25.984C194.711 25.0453 193.452 23.808 192.471 22.272C191.532 20.736 191.063 18.7733 191.063 16.384C191.063 13.824 191.746 11.4987 193.111 9.408C194.519 7.27466 196.61 5.58933 199.383 4.352C202.199 3.072 205.719 2.432 209.943 2.432C212.759 2.432 215.532 2.77333 218.263 3.456C220.994 4.096 223.404 5.07733 225.495 6.4L222.295 14.272C220.204 13.0773 218.114 12.2027 216.023 11.648C213.932 11.0507 211.884 10.752 209.879 10.752C207.874 10.752 206.231 10.9867 204.951 11.456C203.671 11.9253 202.754 12.544 202.199 13.312C201.644 14.0373 201.367 14.8907 201.367 15.872C201.367 17.024 201.836 17.9627 202.775 18.688C203.714 19.3707 204.951 19.9253 206.487 20.352C208.023 20.7787 209.708 21.2053 211.543 21.632C213.42 22.0587 215.276 22.5493 217.111 23.104C218.988 23.6587 220.695 24.4053 222.231 25.344C223.767 26.2827 225.004 27.52 225.943 29.056C226.924 30.592 227.415 32.5333 227.415 34.88C227.415 37.3973 226.711 39.7013 225.303 41.792C223.895 43.8827 221.783 45.568 218.967 46.848C216.194 48.128 212.674 48.768 208.407 48.768ZM255.94 48.768C252.484 48.768 249.262 48.2133 246.276 47.104C243.332 45.952 240.772 44.3307 238.595 42.24C236.42 40.1493 234.713 37.696 233.476 34.88C232.281 32.064 231.684 28.9707 231.684 25.6C231.684 22.2293 232.281 19.136 233.476 16.32C234.713 13.504 236.42 11.0507 238.595 8.96C240.814 6.86933 243.396 5.26933 246.34 4.16C249.284 3.008 252.505 2.432 256.004 2.432C259.886 2.432 263.385 3.11467 266.5 4.48C269.657 5.80266 272.302 7.76533 274.436 10.368L267.78 16.512C266.244 14.7627 264.537 13.4613 262.66 12.608C260.782 11.712 258.734 11.264 256.516 11.264C254.425 11.264 252.505 11.6053 250.756 12.288C249.006 12.9707 247.492 13.952 246.212 15.232C244.932 16.512 243.929 18.0267 243.204 19.776C242.521 21.5253 242.18 23.4667 242.18 25.6C242.18 27.7333 242.521 29.6747 243.204 31.424C243.929 33.1733 244.932 34.688 246.212 35.968C247.492 37.248 249.006 38.2293 250.756 38.912C252.505 39.5947 254.425 39.936 256.516 39.936C258.734 39.936 260.782 39.5093 262.66 38.656C264.537 37.76 266.244 36.416 267.78 34.624L274.436 40.768C272.302 43.3707 269.657 45.3547 266.5 46.72C263.385 48.0853 259.865 48.768 255.94 48.768ZM312.157 3.2H322.525V48H312.157V3.2ZM291.805 48H281.437V3.2H291.805V48ZM312.925 29.632H291.037V20.864H312.925V29.632ZM354.885 48.768C351.343 48.768 348.058 48.192 345.029 47.04C342.042 45.888 339.439 44.2667 337.22 42.176C335.045 40.0853 333.338 37.632 332.101 34.816C330.906 32 330.309 28.928 330.309 25.6C330.309 22.272 330.906 19.2 332.101 16.384C333.338 13.568 335.066 11.1147 337.285 9.024C339.503 6.93333 342.106 5.312 345.093 4.16C348.079 3.008 351.322 2.432 354.821 2.432C358.362 2.432 361.604 3.008 364.549 4.16C367.535 5.312 370.117 6.93333 372.293 9.024C374.511 11.1147 376.239 13.568 377.477 16.384C378.714 19.1573 379.333 22.2293 379.333 25.6C379.333 28.928 378.714 32.0213 377.477 34.88C376.239 37.696 374.511 40.1493 372.293 42.24C370.117 44.288 367.535 45.888 364.549 47.04C361.604 48.192 358.383 48.768 354.885 48.768ZM354.821 39.936C356.826 39.936 358.661 39.5947 360.325 38.912C362.031 38.2293 363.525 37.248 364.805 35.968C366.085 34.688 367.066 33.1733 367.749 31.424C368.474 29.6747 368.837 27.7333 368.837 25.6C368.837 23.4667 368.474 21.5253 367.749 19.776C367.066 18.0267 366.085 16.512 364.805 15.232C363.567 13.952 362.095 12.9707 360.389 12.288C358.682 11.6053 356.826 11.264 354.821 11.264C352.815 11.264 350.959 11.6053 349.253 12.288C347.589 12.9707 346.117 13.952 344.837 15.232C343.557 16.512 342.554 18.0267 341.829 19.776C341.146 21.5253 340.805 23.4667 340.805 25.6C340.805 27.6907 341.146 29.632 341.829 31.424C342.554 33.1733 343.535 34.688 344.773 35.968C346.053 37.248 347.546 38.2293 349.253 38.912C350.959 39.5947 352.815 39.936 354.821 39.936ZM408.885 48.768C405.343 48.768 402.058 48.192 399.029 47.04C396.042 45.888 393.439 44.2667 391.22 42.176C389.045 40.0853 387.338 37.632 386.101 34.816C384.906 32 384.309 28.928 384.309 25.6C384.309 22.272 384.906 19.2 386.101 16.384C387.338 13.568 389.066 11.1147 391.285 9.024C393.503 6.93333 396.106 5.312 399.093 4.16C402.079 3.008 405.322 2.432 408.821 2.432C412.362 2.432 415.604 3.008 418.549 4.16C421.535 5.312 424.117 6.93333 426.293 9.024C428.511 11.1147 430.239 13.568 431.477 16.384C432.714 19.1573 433.333 22.2293 433.333 25.6C433.333 28.928 432.714 32.0213 431.477 34.88C430.239 37.696 428.511 40.1493 426.293 42.24C424.117 44.288 421.535 45.888 418.549 47.04C415.604 48.192 412.383 48.768 408.885 48.768ZM408.821 39.936C410.826 39.936 412.661 39.5947 414.325 38.912C416.031 38.2293 417.525 37.248 418.805 35.968C420.085 34.688 421.066 33.1733 421.749 31.424C422.474 29.6747 422.837 27.7333 422.837 25.6C422.837 23.4667 422.474 21.5253 421.749 19.776C421.066 18.0267 420.085 16.512 418.805 15.232C417.567 13.952 416.095 12.9707 414.389 12.288C412.682 11.6053 410.826 11.264 408.821 11.264C406.815 11.264 404.959 11.6053 403.253 12.288C401.589 12.9707 400.117 13.952 398.837 15.232C397.557 16.512 396.554 18.0267 395.829 19.776C395.146 21.5253 394.805 23.4667 394.805 25.6C394.805 27.6907 395.146 29.632 395.829 31.424C396.554 33.1733 397.535 34.688 398.773 35.968C400.053 37.248 401.546 38.2293 403.253 38.912C404.959 39.5947 406.815 39.936 408.821 39.936ZM441.125 48V3.2H451.493V39.552H473.957V48H441.125Z"/>
</mask>
<path d="M2.312 48V3.2H10.888L37.32 35.456H33.16V3.2H43.4V48H34.888L8.392 15.744H12.552V48H2.312ZM75.7595 48.768C72.2182 48.768 68.9328 48.192 65.9035 47.04C62.9168 45.888 60.3142 44.2667 58.0955 42.176C55.9195 40.0853 54.2128 37.632 52.9755 34.816C51.7808 32 51.1835 28.928 51.1835 25.6C51.1835 22.272 51.7808 19.2 52.9755 16.384C54.2128 13.568 55.9408 11.1147 58.1595 9.024C60.3782 6.93333 62.9808 5.312 65.9675 4.16C68.9542 3.008 72.1968 2.432 75.6955 2.432C79.2368 2.432 82.4795 3.008 85.4235 4.16C88.4102 5.312 90.9915 6.93333 93.1675 9.024C95.3862 11.1147 97.1142 13.568 98.3515 16.384C99.5888 19.1573 100.208 22.2293 100.208 25.6C100.208 28.928 99.5888 32.0213 98.3515 34.88C97.1142 37.696 95.3862 40.1493 93.1675 42.24C90.9915 44.288 88.4102 45.888 85.4235 47.04C82.4795 48.192 79.2582 48.768 75.7595 48.768ZM75.6955 39.936C77.7008 39.936 79.5355 39.5947 81.1995 38.912C82.9062 38.2293 84.3995 37.248 85.6795 35.968C86.9595 34.688 87.9408 33.1733 88.6235 31.424C89.3488 29.6747 89.7115 27.7333 89.7115 25.6C89.7115 23.4667 89.3488 21.5253 88.6235 19.776C87.9408 18.0267 86.9595 16.512 85.6795 15.232C84.4422 13.952 82.9702 12.9707 81.2635 12.288C79.5568 11.6053 77.7008 11.264 75.6955 11.264C73.6902 11.264 71.8342 11.6053 70.1275 12.288C68.4635 12.9707 66.9915 13.952 65.7115 15.232C64.4315 16.512 63.4288 18.0267 62.7035 19.776C62.0208 21.5253 61.6795 23.4667 61.6795 25.6C61.6795 27.6907 62.0208 29.632 62.7035 31.424C63.4288 33.1733 64.4102 34.688 65.6475 35.968C66.9275 37.248 68.4208 38.2293 70.1275 38.912C71.8342 39.5947 73.6902 39.936 75.6955 39.936ZM116.655 48V11.648H102.319V3.2H141.359V11.648H127.023V48H116.655Z" fill="#8F8E8E"/>
<path d="M138.799 48L158.767 3.2H169.007L189.039 48H178.159L161.775 8.448H165.871L149.423 48H138.799ZM148.783 38.4L151.535 30.528H174.575L177.391 38.4H148.783Z" fill="#FF4A4A"/>
<path d="M208.407 48.768C204.823 48.768 201.388 48.2987 198.103 47.36C194.818 46.3787 192.172 45.12 190.167 43.584L193.687 35.776C195.607 37.1413 197.868 38.272 200.471 39.168C203.116 40.0213 205.783 40.448 208.471 40.448C210.519 40.448 212.162 40.256 213.399 39.872C214.679 39.4453 215.618 38.8693 216.215 38.144C216.812 37.4187 217.111 36.5867 217.111 35.648C217.111 34.4533 216.642 33.5147 215.703 32.832C214.764 32.1067 213.527 31.5307 211.991 31.104C210.455 30.6347 208.748 30.208 206.871 29.824C205.036 29.3973 203.18 28.8853 201.303 28.288C199.468 27.6907 197.783 26.9227 196.247 25.984C194.711 25.0453 193.452 23.808 192.471 22.272C191.532 20.736 191.063 18.7733 191.063 16.384C191.063 13.824 191.746 11.4987 193.111 9.408C194.519 7.27466 196.61 5.58933 199.383 4.352C202.199 3.072 205.719 2.432 209.943 2.432C212.759 2.432 215.532 2.77333 218.263 3.456C220.994 4.096 223.404 5.07733 225.495 6.4L222.295 14.272C220.204 13.0773 218.114 12.2027 216.023 11.648C213.932 11.0507 211.884 10.752 209.879 10.752C207.874 10.752 206.231 10.9867 204.951 11.456C203.671 11.9253 202.754 12.544 202.199 13.312C201.644 14.0373 201.367 14.8907 201.367 15.872C201.367 17.024 201.836 17.9627 202.775 18.688C203.714 19.3707 204.951 19.9253 206.487 20.352C208.023 20.7787 209.708 21.2053 211.543 21.632C213.42 22.0587 215.276 22.5493 217.111 23.104C218.988 23.6587 220.695 24.4053 222.231 25.344C223.767 26.2827 225.004 27.52 225.943 29.056C226.924 30.592 227.415 32.5333 227.415 34.88C227.415 37.3973 226.711 39.7013 225.303 41.792C223.895 43.8827 221.783 45.568 218.967 46.848C216.194 48.128 212.674 48.768 208.407 48.768ZM255.94 48.768C252.484 48.768 249.262 48.2133 246.276 47.104C243.332 45.952 240.772 44.3307 238.595 42.24C236.42 40.1493 234.713 37.696 233.476 34.88C232.281 32.064 231.684 28.9707 231.684 25.6C231.684 22.2293 232.281 19.136 233.476 16.32C234.713 13.504 236.42 11.0507 238.595 8.96C240.814 6.86933 243.396 5.26933 246.34 4.16C249.284 3.008 252.505 2.432 256.004 2.432C259.886 2.432 263.385 3.11467 266.5 4.48C269.657 5.80266 272.302 7.76533 274.436 10.368L267.78 16.512C266.244 14.7627 264.537 13.4613 262.66 12.608C260.782 11.712 258.734 11.264 256.516 11.264C254.425 11.264 252.505 11.6053 250.756 12.288C249.006 12.9707 247.492 13.952 246.212 15.232C244.932 16.512 243.929 18.0267 243.204 19.776C242.521 21.5253 242.18 23.4667 242.18 25.6C242.18 27.7333 242.521 29.6747 243.204 31.424C243.929 33.1733 244.932 34.688 246.212 35.968C247.492 37.248 249.006 38.2293 250.756 38.912C252.505 39.5947 254.425 39.936 256.516 39.936C258.734 39.936 260.782 39.5093 262.66 38.656C264.537 37.76 266.244 36.416 267.78 34.624L274.436 40.768C272.302 43.3707 269.657 45.3547 266.5 46.72C263.385 48.0853 259.865 48.768 255.94 48.768ZM312.157 3.2H322.525V48H312.157V3.2ZM291.805 48H281.437V3.2H291.805V48ZM312.925 29.632H291.037V20.864H312.925V29.632ZM354.885 48.768C351.343 48.768 348.058 48.192 345.029 47.04C342.042 45.888 339.439 44.2667 337.22 42.176C335.045 40.0853 333.338 37.632 332.101 34.816C330.906 32 330.309 28.928 330.309 25.6C330.309 22.272 330.906 19.2 332.101 16.384C333.338 13.568 335.066 11.1147 337.285 9.024C339.503 6.93333 342.106 5.312 345.093 4.16C348.079 3.008 351.322 2.432 354.821 2.432C358.362 2.432 361.604 3.008 364.549 4.16C367.535 5.312 370.117 6.93333 372.293 9.024C374.511 11.1147 376.239 13.568 377.477 16.384C378.714 19.1573 379.333 22.2293 379.333 25.6C379.333 28.928 378.714 32.0213 377.477 34.88C376.239 37.696 374.511 40.1493 372.293 42.24C370.117 44.288 367.535 45.888 364.549 47.04C361.604 48.192 358.383 48.768 354.885 48.768ZM354.821 39.936C356.826 39.936 358.661 39.5947 360.325 38.912C362.031 38.2293 363.525 37.248 364.805 35.968C366.085 34.688 367.066 33.1733 367.749 31.424C368.474 29.6747 368.837 27.7333 368.837 25.6C368.837 23.4667 368.474 21.5253 367.749 19.776C367.066 18.0267 366.085 16.512 364.805 15.232C363.567 13.952 362.095 12.9707 360.389 12.288C358.682 11.6053 356.826 11.264 354.821 11.264C352.815 11.264 350.959 11.6053 349.253 12.288C347.589 12.9707 346.117 13.952 344.837 15.232C343.557 16.512 342.554 18.0267 341.829 19.776C341.146 21.5253 340.805 23.4667 340.805 25.6C340.805 27.6907 341.146 29.632 341.829 31.424C342.554 33.1733 343.535 34.688 344.773 35.968C346.053 37.248 347.546 38.2293 349.253 38.912C350.959 39.5947 352.815 39.936 354.821 39.936ZM408.885 48.768C405.343 48.768 402.058 48.192 399.029 47.04C396.042 45.888 393.439 44.2667 391.22 42.176C389.045 40.0853 387.338 37.632 386.101 34.816C384.906 32 384.309 28.928 384.309 25.6C384.309 22.272 384.906 19.2 386.101 16.384C387.338 13.568 389.066 11.1147 391.285 9.024C393.503 6.93333 396.106 5.312 399.093 4.16C402.079 3.008 405.322 2.432 408.821 2.432C412.362 2.432 415.604 3.008 418.549 4.16C421.535 5.312 424.117 6.93333 426.293 9.024C428.511 11.1147 430.239 13.568 431.477 16.384C432.714 19.1573 433.333 22.2293 433.333 25.6C433.333 28.928 432.714 32.0213 431.477 34.88C430.239 37.696 428.511 40.1493 426.293 42.24C424.117 44.288 421.535 45.888 418.549 47.04C415.604 48.192 412.383 48.768 408.885 48.768ZM408.821 39.936C410.826 39.936 412.661 39.5947 414.325 38.912C416.031 38.2293 417.525 37.248 418.805 35.968C420.085 34.688 421.066 33.1733 421.749 31.424C422.474 29.6747 422.837 27.7333 422.837 25.6C422.837 23.4667 422.474 21.5253 421.749 19.776C421.066 18.0267 420.085 16.512 418.805 15.232C417.567 13.952 416.095 12.9707 414.389 12.288C412.682 11.6053 410.826 11.264 408.821 11.264C406.815 11.264 404.959 11.6053 403.253 12.288C401.589 12.9707 400.117 13.952 398.837 15.232C397.557 16.512 396.554 18.0267 395.829 19.776C395.146 21.5253 394.805 23.4667 394.805 25.6C394.805 27.6907 395.146 29.632 395.829 31.424C396.554 33.1733 397.535 34.688 398.773 35.968C400.053 37.248 401.546 38.2293 403.253 38.912C404.959 39.5947 406.815 39.936 408.821 39.936ZM441.125 48V3.2H451.493V39.552H473.957V48H441.125Z" fill="#D3D3D3"/>
<path d="M2.312 48H1.812V48.5H2.312V48ZM2.312 3.2V2.7H1.812V3.2H2.312ZM10.888 3.2L11.2747 2.88309L11.1247 2.7H10.888V3.2ZM37.32 35.456V35.956H38.3762L37.7067 35.1391L37.32 35.456ZM33.16 35.456H32.66V35.956H33.16V35.456ZM33.16 3.2V2.7H32.66V3.2H33.16ZM43.4 3.2H43.9V2.7H43.4V3.2ZM43.4 48V48.5H43.9V48H43.4ZM34.888 48L34.5016 48.3174L34.6517 48.5H34.888V48ZM8.392 15.744V15.244H7.33423L8.00564 16.0614L8.392 15.744ZM12.552 15.744H13.052V15.244H12.552V15.744ZM12.552 48V48.5H13.052V48H12.552ZM2.812 48V3.2H1.812V48H2.812ZM2.312 3.7H10.888V2.7H2.312V3.7ZM10.5013 3.51691L36.9333 35.7729L37.7067 35.1391L11.2747 2.88309L10.5013 3.51691ZM37.32 34.956H33.16V35.956H37.32V34.956ZM33.66 35.456V3.2H32.66V35.456H33.66ZM33.16 3.7H43.4V2.7H33.16V3.7ZM42.9 3.2V48H43.9V3.2H42.9ZM43.4 47.5H34.888V48.5H43.4V47.5ZM35.2744 47.6826L8.77836 15.4266L8.00564 16.0614L34.5016 48.3174L35.2744 47.6826ZM8.392 16.244H12.552V15.244H8.392V16.244ZM12.052 15.744V48H13.052V15.744H12.052ZM12.552 47.5H2.312V48.5H12.552V47.5ZM65.9035 47.04L65.7236 47.5065L65.7258 47.5073L65.9035 47.04ZM58.0955 42.176L57.7491 42.5366L57.7526 42.5399L58.0955 42.176ZM52.9755 34.816L52.5152 35.0113L52.5177 35.0171L52.9755 34.816ZM52.9755 16.384L52.5177 16.1828L52.5152 16.1887L52.9755 16.384ZM65.9675 4.16L65.7876 3.6935L65.7876 3.6935L65.9675 4.16ZM85.4235 4.16L85.2413 4.62562L85.2436 4.6265L85.4235 4.16ZM93.1675 9.024L92.8211 9.38457L92.8246 9.38789L93.1675 9.024ZM98.3515 16.384L97.8937 16.5851L97.8949 16.5877L98.3515 16.384ZM98.3515 34.88L98.8093 35.0811L98.8104 35.0786L98.3515 34.88ZM93.1675 42.24L93.5102 42.6041L93.5104 42.6039L93.1675 42.24ZM85.4235 47.04L85.2436 46.5735L85.2413 46.5744L85.4235 47.04ZM81.1995 38.912L81.0138 38.4477L81.0097 38.4494L81.1995 38.912ZM85.6795 35.968L85.3259 35.6144L85.3259 35.6144L85.6795 35.968ZM88.6235 31.424L88.1615 31.2324L88.1577 31.2422L88.6235 31.424ZM88.6235 19.776L88.1576 19.9578L88.1616 19.9675L88.6235 19.776ZM85.6795 15.232L85.32 15.5796L85.3259 15.5856L85.6795 15.232ZM81.2635 12.288L81.0778 12.7522L81.0778 12.7522L81.2635 12.288ZM70.1275 12.288L69.9418 11.8237L69.9377 11.8254L70.1275 12.288ZM65.7115 15.232L66.0651 15.5856L66.0651 15.5856L65.7115 15.232ZM62.7035 19.776L62.2415 19.5844L62.2377 19.5942L62.7035 19.776ZM62.7035 31.424L62.2363 31.602L62.2388 31.6088L62.2416 31.6155L62.7035 31.424ZM65.6475 35.968L65.288 36.3156L65.2939 36.3216L65.6475 35.968ZM70.1275 38.912L69.9418 39.3762L69.9418 39.3762L70.1275 38.912ZM75.7595 48.268C72.2733 48.268 69.0488 47.7011 66.0812 46.5727L65.7258 47.5073C68.8169 48.6829 72.1631 49.268 75.7595 49.268V48.268ZM66.0834 46.5735C63.1542 45.4436 60.6076 43.8561 58.4384 41.8121L57.7526 42.5399C60.0208 44.6772 62.6795 46.3324 65.7236 47.5065L66.0834 46.5735ZM58.4419 41.8154C56.314 39.771 54.6448 37.3721 53.4333 34.6149L52.5177 35.0171C53.7809 37.8919 55.525 40.3997 57.7491 42.5366L58.4419 41.8154ZM53.4358 34.6207C52.2696 31.8717 51.6835 28.8669 51.6835 25.6H50.6835C50.6835 28.9891 51.2921 32.1283 52.5152 35.0113L53.4358 34.6207ZM51.6835 25.6C51.6835 22.3331 52.2696 19.3283 53.4358 16.5793L52.5152 16.1887C51.2921 19.0717 50.6835 22.2109 50.6835 25.6H51.6835ZM53.4333 16.5851C54.6439 13.83 56.333 11.4321 58.5024 9.38789L57.8166 8.6601C55.5487 10.7972 53.7818 13.306 52.5177 16.1829L53.4333 16.5851ZM58.5024 9.38789C60.6716 7.34387 63.2182 5.75636 66.1474 4.6265L65.7876 3.6935C62.7435 4.86763 60.0848 6.52279 57.8166 8.6601L58.5024 9.38789ZM66.1474 4.6265C69.0716 3.49861 72.2526 2.932 75.6955 2.932V1.932C72.141 1.932 68.8368 2.51738 65.7876 3.6935L66.1474 4.6265ZM75.6955 2.932C79.182 2.932 82.3619 3.49891 85.2413 4.62562L85.6057 3.69437C82.5971 2.51709 79.2917 1.932 75.6955 1.932V2.932ZM85.2436 4.6265C88.1721 5.75607 90.6959 7.34267 92.8211 9.38455L93.5139 8.66345C91.2871 6.524 88.6483 4.86793 85.6034 3.6935L85.2436 4.6265ZM92.8246 9.38789C94.994 11.4321 96.6831 13.83 97.8937 16.5851L98.8093 16.1829C97.5452 13.306 95.7783 10.7972 93.5104 8.6601L92.8246 9.38789ZM97.8949 16.5877C99.1006 19.2902 99.7075 22.2918 99.7075 25.6H100.708C100.708 22.1669 100.077 19.0244 98.8081 16.1803L97.8949 16.5877ZM99.7075 25.6C99.7075 28.8644 99.101 31.8896 97.8926 34.6814L98.8104 35.0786C100.077 32.153 100.708 28.9916 100.708 25.6H99.7075ZM97.8937 34.6789C96.6831 37.434 94.994 39.8319 92.8246 41.8761L93.5104 42.6039C95.7783 40.4668 97.5452 37.958 98.8093 35.0811L97.8937 34.6789ZM92.8248 41.8759C90.6992 43.8765 88.1742 45.4431 85.2436 46.5735L85.6034 47.5065C88.6461 46.3329 91.2838 44.6995 93.5102 42.6041L92.8248 41.8759ZM85.2413 46.5744C82.3612 47.7014 79.2025 48.268 75.7595 48.268V49.268C79.3139 49.268 82.5978 48.6826 85.6057 47.5056L85.2413 46.5744ZM75.6955 40.436C77.7584 40.436 79.6585 40.0846 81.3893 39.3746L81.0097 38.4494C79.4125 39.1047 77.6432 39.436 75.6955 39.436V40.436ZM81.3852 39.3762C83.1537 38.6688 84.7044 37.6502 86.0331 36.3216L85.3259 35.6144C84.0946 36.8458 82.6586 37.7898 81.0138 38.4478L81.3852 39.3762ZM86.0331 36.3216C87.3638 34.9908 88.3825 33.417 89.0893 31.6058L88.1577 31.2422C87.4992 32.9296 86.5552 34.3852 85.3259 35.6144L86.0331 36.3216ZM89.0854 31.6155C89.8389 29.7982 90.2115 27.7908 90.2115 25.6H89.2115C89.2115 27.6759 88.8588 29.5511 88.1616 31.2325L89.0854 31.6155ZM90.2115 25.6C90.2115 23.4092 89.8389 21.4018 89.0854 19.5845L88.1616 19.9675C88.8588 21.6489 89.2115 23.5241 89.2115 25.6H90.2115ZM89.0893 19.5942C88.3825 17.783 87.3638 16.2092 86.0331 14.8784L85.3259 15.5856C86.5552 16.8148 87.4992 18.2704 88.1577 19.9578L89.0893 19.5942ZM86.039 14.8845C84.751 13.5521 83.2192 12.5318 81.4492 11.8238L81.0778 12.7522C82.7211 13.4096 84.1333 14.3519 85.32 15.5795L86.039 14.8845ZM81.4492 11.8238C79.6783 11.1154 77.7586 10.764 75.6955 10.764V11.764C77.643 11.764 79.4354 12.0953 81.0778 12.7522L81.4492 11.8238ZM75.6955 10.764C73.6324 10.764 71.7127 11.1154 69.9418 11.8238L70.3132 12.7522C71.9556 12.0953 73.748 11.764 75.6955 11.764V10.764ZM69.9377 11.8254C68.212 12.5334 66.6845 13.5519 65.3579 14.8784L66.0651 15.5856C67.2985 14.3521 68.715 13.4079 70.3173 12.7506L69.9377 11.8254ZM65.3579 14.8784C64.0294 16.207 62.9909 17.7774 62.2416 19.5845L63.1654 19.9675C63.8668 18.2759 64.8336 16.817 66.0651 15.5856L65.3579 14.8784ZM62.2377 19.5942C61.5296 21.4088 61.1795 23.4129 61.1795 25.6H62.1795C62.1795 23.5205 62.5121 21.6418 63.1693 19.9578L62.2377 19.5942ZM61.1795 25.6C61.1795 27.746 61.5301 29.7482 62.2363 31.602L63.1707 31.246C62.5116 29.5158 62.1795 27.6353 62.1795 25.6H61.1795ZM62.2416 31.6155C62.9894 33.4191 64.0043 34.9876 65.288 36.3155L66.007 35.6205C64.816 34.3884 63.8682 32.9276 63.1654 31.2325L62.2416 31.6155ZM65.2939 36.3216C66.6226 37.6502 68.1733 38.6688 69.9418 39.3762L70.3132 38.4478C68.6684 37.7898 67.2324 36.8458 66.0011 35.6144L65.2939 36.3216ZM69.9418 39.3762C71.7127 40.0846 73.6324 40.436 75.6955 40.436V39.436C73.748 39.436 71.9556 39.1047 70.3132 38.4478L69.9418 39.3762ZM116.655 48H116.155V48.5H116.655V48ZM116.655 11.648H117.155V11.148H116.655V11.648ZM102.319 11.648H101.819V12.148H102.319V11.648ZM102.319 3.2V2.7H101.819V3.2H102.319ZM141.359 3.2H141.859V2.7H141.359V3.2ZM141.359 11.648V12.148H141.859V11.648H141.359ZM127.023 11.648V11.148H126.523V11.648H127.023ZM127.023 48V48.5H127.523V48H127.023ZM117.155 48V11.648H116.155V48H117.155ZM116.655 11.148H102.319V12.148H116.655V11.148ZM102.819 11.648V3.2H101.819V11.648H102.819ZM102.319 3.7H141.359V2.7H102.319V3.7ZM140.859 3.2V11.648H141.859V3.2H140.859ZM141.359 11.148H127.023V12.148H141.359V11.148ZM126.523 11.648V48H127.523V11.648H126.523ZM127.023 47.5H116.655V48.5H127.023V47.5ZM138.799 48L138.342 47.7964L138.029 48.5H138.799V48ZM158.767 3.2V2.7H158.442L158.31 2.99644L158.767 3.2ZM169.007 3.2L169.463 2.9959L169.331 2.7H169.007V3.2ZM189.039 48V48.5H189.81L189.495 47.7959L189.039 48ZM178.159 48L177.697 48.1914L177.825 48.5H178.159V48ZM161.775 8.448V7.948H161.027L161.313 8.63935L161.775 8.448ZM165.871 8.448L166.333 8.63999L166.62 7.948H165.871V8.448ZM149.423 48V48.5H149.757L149.885 48.192L149.423 48ZM148.783 38.4L148.311 38.235L148.079 38.9H148.783V38.4ZM151.535 30.528V30.028H151.18L151.063 30.363L151.535 30.528ZM174.575 30.528L175.046 30.3596L174.927 30.028H174.575V30.528ZM177.391 38.4V38.9H178.101L177.862 38.2316L177.391 38.4ZM139.256 48.2036L159.224 3.40355L158.31 2.99644L138.342 47.7964L139.256 48.2036ZM158.767 3.7H169.007V2.7H158.767V3.7ZM168.551 3.40409L188.583 48.2041L189.495 47.7959L169.463 2.9959L168.551 3.40409ZM189.039 47.5H178.159V48.5H189.039V47.5ZM178.621 47.8086L162.237 8.25665L161.313 8.63935L177.697 48.1914L178.621 47.8086ZM161.775 8.948H165.871V7.948H161.775V8.948ZM165.409 8.25601L148.961 47.808L149.885 48.192L166.333 8.63999L165.409 8.25601ZM149.423 47.5H138.799V48.5H149.423V47.5ZM149.255 38.565L152.007 30.693L151.063 30.363L148.311 38.235L149.255 38.565ZM151.535 31.028H174.575V30.028H151.535V31.028ZM174.104 30.6964L176.92 38.5684L177.862 38.2316L175.046 30.3596L174.104 30.6964ZM177.391 37.9H148.783V38.9H177.391V37.9ZM198.103 47.36L197.96 47.8391L197.966 47.8408L198.103 47.36ZM190.167 43.584L189.711 43.3785L189.548 43.7399L189.863 43.9809L190.167 43.584ZM193.687 35.776L193.977 35.3685L193.481 35.0161L193.231 35.5705L193.687 35.776ZM200.471 39.168L200.308 39.6409L200.317 39.6439L200.471 39.168ZM213.399 39.872L213.547 40.3496L213.557 40.3463L213.399 39.872ZM216.215 38.144L215.829 37.8261L215.829 37.8261L216.215 38.144ZM215.703 32.832L215.397 33.2276L215.403 33.2321L215.409 33.2364L215.703 32.832ZM211.991 31.104L211.845 31.5823L211.857 31.5858L211.991 31.104ZM206.871 29.824L206.758 30.3112L206.771 30.3139L206.871 29.824ZM201.303 28.288L201.148 28.7634L201.151 28.7645L201.303 28.288ZM196.247 25.984L195.986 26.4106L195.986 26.4106L196.247 25.984ZM192.471 22.272L192.044 22.5328L192.05 22.5412L192.471 22.272ZM193.111 9.408L192.694 9.13257L192.692 9.1346L193.111 9.408ZM199.383 4.352L199.587 4.80862L199.59 4.80718L199.383 4.352ZM218.263 3.456L218.142 3.94112L218.149 3.94281L218.263 3.456ZM225.495 6.4L225.958 6.58829L226.116 6.20098L225.762 5.97746L225.495 6.4ZM222.295 14.272L222.047 14.7061L222.543 14.9896L222.758 14.4603L222.295 14.272ZM216.023 11.648L215.886 12.1288L215.895 12.1313L216.023 11.648ZM204.951 11.456L204.779 10.9866L204.779 10.9866L204.951 11.456ZM202.199 13.312L202.596 13.6158L202.604 13.6047L202.199 13.312ZM202.775 18.688L202.469 19.0836L202.475 19.0881L202.481 19.0924L202.775 18.688ZM206.487 20.352L206.353 20.8338L206.353 20.8338L206.487 20.352ZM211.543 21.632L211.43 22.119L211.432 22.1196L211.543 21.632ZM217.111 23.104L216.966 23.5826L216.969 23.5835L217.111 23.104ZM222.231 25.344L222.492 24.9174L222.492 24.9174L222.231 25.344ZM225.943 29.056L225.516 29.3168L225.522 29.3252L225.943 29.056ZM225.303 41.792L225.718 42.0713L225.718 42.0713L225.303 41.792ZM218.967 46.848L218.76 46.3928L218.757 46.394L218.967 46.848ZM208.407 48.268C204.867 48.268 201.479 47.8045 198.24 46.8792L197.966 47.8408C201.298 48.7928 204.779 49.268 208.407 49.268V48.268ZM198.246 46.8809C195 45.9112 192.414 44.6755 190.471 43.1871L189.863 43.9809C191.93 45.5645 194.636 46.8462 197.96 47.8391L198.246 46.8809ZM190.623 43.7895L194.143 35.9815L193.231 35.5705L189.711 43.3785L190.623 43.7895ZM193.397 36.1835C195.362 37.5807 197.668 38.7317 200.308 39.6408L200.634 38.6952C198.069 37.8123 195.852 36.7019 193.977 35.3685L193.397 36.1835ZM200.317 39.6439C203.011 40.5126 205.729 40.948 208.471 40.948V39.948C205.837 39.948 203.222 39.53 200.625 38.6921L200.317 39.6439ZM208.471 40.948C210.544 40.948 212.242 40.7545 213.547 40.3495L213.251 39.3945C212.081 39.7575 210.494 39.948 208.471 39.948V40.948ZM213.557 40.3463C214.889 39.9022 215.923 39.2848 216.601 38.4619L215.829 37.8261C215.312 38.4539 214.469 38.9884 213.241 39.3977L213.557 40.3463ZM216.601 38.4619C217.272 37.6471 217.611 36.7028 217.611 35.648H216.611C216.611 36.4706 216.353 37.1902 215.829 37.8261L216.601 38.4619ZM217.611 35.648C217.611 34.2989 217.07 33.2076 215.997 32.4276L215.409 33.2364C216.214 33.8217 216.611 34.6078 216.611 35.648H217.611ZM216.009 32.4364C215.005 31.6604 213.703 31.0606 212.125 30.6222L211.857 31.5858C213.351 32.0007 214.524 32.5529 215.397 33.2276L216.009 32.4364ZM212.137 30.6258C210.583 30.1511 208.861 29.7207 206.971 29.3341L206.771 30.3139C208.636 30.6953 210.327 31.1182 211.845 31.5822L212.137 30.6258ZM206.984 29.337C205.163 28.9135 203.32 28.405 201.455 27.8115L201.151 28.7645C203.041 29.3656 204.91 29.8812 206.758 30.311L206.984 29.337ZM201.458 27.8126C199.658 27.2264 198.008 26.4743 196.508 25.5574L195.986 26.4106C197.558 27.371 199.279 28.1549 201.148 28.7634L201.458 27.8126ZM196.508 25.5574C195.037 24.6588 193.833 23.4756 192.892 22.0028L192.05 22.5412C193.071 24.1404 194.385 25.4319 195.986 26.4106L196.508 25.5574ZM192.898 22.0113C192.02 20.5755 191.563 18.7106 191.563 16.384H190.563C190.563 18.836 191.044 20.8965 192.044 22.5327L192.898 22.0113ZM191.563 16.384C191.563 13.9185 192.219 11.6886 193.53 9.68139L192.692 9.1346C191.273 11.3087 190.563 13.7295 190.563 16.384H191.563ZM193.528 9.68342C194.875 7.6435 196.884 6.01453 199.587 4.80861L199.179 3.89538C196.336 5.16413 194.163 6.90582 192.694 9.13258L193.528 9.68342ZM199.59 4.80718C202.322 3.56543 205.766 2.932 209.943 2.932V1.932C205.672 1.932 202.076 2.57857 199.176 3.89681L199.59 4.80718ZM209.943 2.932C212.718 2.932 215.451 3.26832 218.142 3.94107L218.384 2.97093C215.614 2.27834 212.8 1.932 209.943 1.932V2.932ZM218.149 3.94281C220.832 4.57176 223.19 5.53338 225.228 6.82254L225.762 5.97746C223.619 4.62128 221.155 3.62024 218.377 2.96919L218.149 3.94281ZM225.032 6.21171L221.832 14.0837L222.758 14.4603L225.958 6.58829L225.032 6.21171ZM222.543 13.8379C220.419 12.6241 218.288 11.7317 216.151 11.1647L215.895 12.1313C217.939 12.6737 219.99 13.5306 222.047 14.7061L222.543 13.8379ZM216.16 11.1672C214.029 10.5582 211.935 10.252 209.879 10.252V11.252C211.834 11.252 213.836 11.5431 215.886 12.1288L216.16 11.1672ZM209.879 10.252C207.84 10.252 206.133 10.4899 204.779 10.9866L205.123 11.9254C206.329 11.4835 207.907 11.252 209.879 11.252V10.252ZM204.779 10.9866C203.444 11.4758 202.427 12.1421 201.794 13.0193L202.604 13.6047C203.08 12.9459 203.898 12.3748 205.123 11.9254L204.779 10.9866ZM201.802 13.0083C201.175 13.8275 200.867 14.7896 200.867 15.872H201.867C201.867 14.9917 202.113 14.2472 202.596 13.6157L201.802 13.0083ZM200.867 15.872C200.867 17.1842 201.412 18.2669 202.469 19.0836L203.081 18.2924C202.26 17.6584 201.867 16.8638 201.867 15.872H200.867ZM202.481 19.0924C203.482 19.8207 204.78 20.3966 206.353 20.8338L206.621 19.8702C205.122 19.454 203.945 18.9207 203.069 18.2836L202.481 19.0924ZM206.353 20.8338C207.897 21.2626 209.589 21.691 211.43 22.119L211.656 21.145C209.827 20.7197 208.149 20.2947 206.621 19.8702L206.353 20.8338ZM211.432 22.1196C213.298 22.5437 215.143 23.0313 216.966 23.5826L217.256 22.6254C215.41 22.0673 213.542 21.5737 211.654 21.1444L211.432 22.1196ZM216.969 23.5835C218.808 24.1269 220.475 24.8566 221.97 25.7706L222.492 24.9174C220.915 23.9541 219.168 23.1904 217.253 22.6245L216.969 23.5835ZM221.97 25.7706C223.439 26.6679 224.619 27.8484 225.516 29.3167L226.37 28.7953C225.39 27.1916 224.095 25.8974 222.492 24.9174L221.97 25.7706ZM225.522 29.3252C226.439 30.7607 226.915 32.6016 226.915 34.88H227.915C227.915 32.465 227.41 30.4233 226.364 28.7868L225.522 29.3252ZM226.915 34.88C226.915 37.2977 226.241 39.5045 224.888 41.5127L225.718 42.0713C227.181 39.8982 227.915 37.497 227.915 34.88H226.915ZM224.888 41.5127C223.543 43.5109 221.511 45.1424 218.76 46.3928L219.174 47.3032C222.055 45.9936 224.247 44.2544 225.718 42.0713L224.888 41.5127ZM218.757 46.394C216.07 47.6342 212.628 48.268 208.407 48.268V49.268C212.719 49.268 216.317 48.6218 219.177 47.302L218.757 46.394ZM246.276 47.104L246.093 47.5697L246.101 47.5727L246.276 47.104ZM238.595 42.24L238.249 42.6006L238.249 42.6006L238.595 42.24ZM233.476 34.88L233.015 35.0753L233.018 35.0811L233.476 34.88ZM233.476 16.32L233.018 16.1188L233.015 16.1247L233.476 16.32ZM238.595 8.96L238.253 8.59609L238.249 8.59945L238.595 8.96ZM246.34 4.16L246.516 4.62792L246.522 4.62562L246.34 4.16ZM266.5 4.48L266.299 4.938L266.306 4.94117L266.5 4.48ZM274.436 10.368L274.775 10.7354L275.121 10.4156L274.822 10.051L274.436 10.368ZM267.78 16.512L267.404 16.8419L267.742 17.2271L268.119 16.8794L267.78 16.512ZM262.66 12.608L262.444 13.0593L262.453 13.0632L262.66 12.608ZM246.212 15.232L246.565 15.5856L246.565 15.5856L246.212 15.232ZM243.204 19.776L242.742 19.5844L242.738 19.5942L243.204 19.776ZM243.204 31.424L242.738 31.6058L242.742 31.6155L243.204 31.424ZM246.212 35.968L245.858 36.3216L245.858 36.3216L246.212 35.968ZM262.66 38.656L262.866 39.1113L262.875 39.1072L262.66 38.656ZM267.78 34.624L268.119 34.2566L267.737 33.9047L267.4 34.2986L267.78 34.624ZM274.436 40.768L274.822 41.085L275.121 40.7204L274.775 40.4006L274.436 40.768ZM266.5 46.72L266.301 46.2611L266.299 46.2621L266.5 46.72ZM255.94 48.268C252.538 48.268 249.376 47.7222 246.45 46.6353L246.101 47.5727C249.148 48.7044 252.429 49.268 255.94 49.268V48.268ZM246.458 46.6384C243.572 45.5091 241.068 43.9225 238.942 41.8794L238.249 42.6006C240.475 44.7388 243.091 46.3949 246.093 47.5696L246.458 46.6384ZM238.942 41.8794C236.814 39.835 235.145 37.4361 233.933 34.6789L233.018 35.0811C234.281 37.9559 236.025 40.4637 238.249 42.6006L238.942 41.8794ZM233.936 34.6847C232.77 31.9365 232.184 28.9104 232.184 25.6H231.184C231.184 29.0309 231.792 32.1915 233.015 35.0753L233.936 34.6847ZM232.184 25.6C232.184 22.2896 232.77 19.2635 233.936 16.5153L233.015 16.1247C231.792 19.0085 231.184 22.1691 231.184 25.6H232.184ZM233.933 16.5211C235.145 13.7639 236.814 11.365 238.942 9.32055L238.249 8.59945C236.025 10.7363 234.281 13.2441 233.018 16.1189L233.933 16.5211ZM238.938 9.32389C241.107 7.28002 243.632 5.71467 246.516 4.62788L246.163 3.69211C243.159 4.82399 240.521 6.45864 238.253 8.5961L238.938 9.32389ZM246.522 4.62562C249.402 3.49864 252.561 2.932 256.004 2.932V1.932C252.449 1.932 249.165 2.51736 246.157 3.69437L246.522 4.62562ZM256.004 2.932C259.827 2.932 263.256 3.60401 266.299 4.93793L266.7 4.02207C263.514 2.62532 259.946 1.932 256.004 1.932V2.932ZM266.306 4.94117C269.39 6.23285 271.968 8.14656 274.049 10.685L274.822 10.051C272.636 7.3841 269.924 5.37248 266.693 4.01883L266.306 4.94117ZM274.096 10.0006L267.44 16.1446L268.119 16.8794L274.775 10.7354L274.096 10.0006ZM268.155 16.1821C266.578 14.3864 264.816 13.039 262.866 12.1528L262.453 13.0632C264.258 13.8836 265.909 15.1389 267.404 16.8419L268.155 16.1821ZM262.875 12.1568C260.926 11.2265 258.804 10.764 256.516 10.764V11.764C258.665 11.764 260.638 12.1975 262.444 13.0592L262.875 12.1568ZM256.516 10.764C254.37 10.764 252.387 11.1145 250.574 11.8222L250.937 12.7538C252.622 12.0962 254.48 11.764 256.516 11.764V10.764ZM250.574 11.8222C248.762 12.529 247.189 13.5477 245.858 14.8784L246.565 15.5856C247.794 14.3563 249.25 13.4123 250.937 12.7538L250.574 11.8222ZM245.858 14.8784C244.529 16.207 243.491 17.7774 242.742 19.5845L243.665 19.9675C244.367 18.2759 245.334 16.817 246.565 15.5856L245.858 14.8784ZM242.738 19.5942C242.03 21.4088 241.68 23.4129 241.68 25.6H242.68C242.68 23.5205 243.012 21.6418 243.669 19.9578L242.738 19.5942ZM241.68 25.6C241.68 27.7871 242.03 29.7912 242.738 31.6058L243.669 31.2422C243.012 29.5582 242.68 27.6795 242.68 25.6H241.68ZM242.742 31.6155C243.491 33.4226 244.529 34.993 245.858 36.3216L246.565 35.6144C245.334 34.383 244.367 32.9241 243.665 31.2325L242.742 31.6155ZM245.858 36.3216C247.189 37.6523 248.762 38.6709 250.574 39.3778L250.937 38.4462C249.25 37.7877 247.794 36.8437 246.565 35.6144L245.858 36.3216ZM250.574 39.3778C252.387 40.0855 254.37 40.436 256.516 40.436V39.436C254.48 39.436 252.622 39.1038 250.937 38.4462L250.574 39.3778ZM256.516 40.436C258.8 40.436 260.919 39.9962 262.866 39.1112L262.453 38.2008C260.645 39.0224 258.668 39.436 256.516 39.436V40.436ZM262.875 39.1072C264.823 38.1774 266.584 36.7872 268.159 34.9494L267.4 34.2986C265.903 36.0448 264.251 37.3426 262.444 38.2048L262.875 39.1072ZM267.44 34.9914L274.096 41.1354L274.775 40.4006L268.119 34.2566L267.44 34.9914ZM274.049 40.451C271.967 42.9906 269.387 44.9266 266.301 46.2611L266.698 47.1789C269.927 45.7827 272.637 43.7507 274.822 41.085L274.049 40.451ZM266.299 46.2621C263.256 47.5957 259.806 48.268 255.94 48.268V49.268C259.923 49.268 263.513 48.575 266.7 47.1779L266.299 46.2621ZM312.157 3.2V2.7H311.657V3.2H312.157ZM322.525 3.2H323.025V2.7H322.525V3.2ZM322.525 48V48.5H323.025V48H322.525ZM312.157 48H311.657V48.5H312.157V48ZM291.805 48V48.5H292.305V48H291.805ZM281.437 48H280.937V48.5H281.437V48ZM281.437 3.2V2.7H280.937V3.2H281.437ZM291.805 3.2H292.305V2.7H291.805V3.2ZM312.925 29.632V30.132H313.425V29.632H312.925ZM291.037 29.632H290.537V30.132H291.037V29.632ZM291.037 20.864V20.364H290.537V20.864H291.037ZM312.925 20.864H313.425V20.364H312.925V20.864ZM312.157 3.7H322.525V2.7H312.157V3.7ZM322.025 3.2V48H323.025V3.2H322.025ZM322.525 47.5H312.157V48.5H322.525V47.5ZM312.657 48V3.2H311.657V48H312.657ZM291.805 47.5H281.437V48.5H291.805V47.5ZM281.937 48V3.2H280.937V48H281.937ZM281.437 3.7H291.805V2.7H281.437V3.7ZM291.305 3.2V48H292.305V3.2H291.305ZM312.925 29.132H291.037V30.132H312.925V29.132ZM291.537 29.632V20.864H290.537V29.632H291.537ZM291.037 21.364H312.925V20.364H291.037V21.364ZM312.425 20.864V29.632H313.425V20.864H312.425ZM345.029 47.04L344.849 47.5065L344.851 47.5073L345.029 47.04ZM337.22 42.176L336.874 42.5366L336.878 42.5399L337.22 42.176ZM332.101 34.816L331.64 35.0113L331.643 35.0171L332.101 34.816ZM332.101 16.384L331.643 16.1828L331.64 16.1887L332.101 16.384ZM345.093 4.16L344.913 3.6935L344.913 3.6935L345.093 4.16ZM364.549 4.16L364.366 4.62562L364.369 4.6265L364.549 4.16ZM372.293 9.024L371.946 9.38457L371.95 9.38789L372.293 9.024ZM377.477 16.384L377.019 16.5851L377.02 16.5877L377.477 16.384ZM377.477 34.88L377.934 35.0811L377.935 35.0786L377.477 34.88ZM372.293 42.24L372.635 42.6041L372.635 42.6039L372.293 42.24ZM364.549 47.04L364.369 46.5735L364.366 46.5744L364.549 47.04ZM360.325 38.912L360.139 38.4477L360.135 38.4494L360.325 38.912ZM364.805 35.968L364.451 35.6144L364.451 35.6144L364.805 35.968ZM367.749 31.424L367.287 31.2324L367.283 31.2422L367.749 31.424ZM367.749 19.776L367.283 19.9578L367.287 19.9675L367.749 19.776ZM364.805 15.232L364.445 15.5796L364.451 15.5856L364.805 15.232ZM360.389 12.288L360.203 12.7522L360.203 12.7522L360.389 12.288ZM349.253 12.288L349.067 11.8237L349.063 11.8254L349.253 12.288ZM344.837 15.232L345.19 15.5856L345.19 15.5856L344.837 15.232ZM341.829 19.776L341.367 19.5844L341.363 19.5942L341.829 19.776ZM341.829 31.424L341.361 31.602L341.364 31.6088L341.367 31.6155L341.829 31.424ZM344.773 35.968L344.413 36.3156L344.419 36.3216L344.773 35.968ZM349.253 38.912L349.067 39.3762L349.067 39.3762L349.253 38.912ZM354.885 48.268C351.398 48.268 348.174 47.7011 345.206 46.5727L344.851 47.5073C347.942 48.6829 351.288 49.268 354.885 49.268V48.268ZM345.208 46.5735C342.279 45.4436 339.733 43.8561 337.563 41.8121L336.878 42.5399C339.146 44.6772 341.805 46.3324 344.849 47.5065L345.208 46.5735ZM337.567 41.8154C335.439 39.771 333.77 37.3721 332.558 34.6149L331.643 35.0171C332.906 37.8919 334.65 40.3997 336.874 42.5366L337.567 41.8154ZM332.561 34.6207C331.395 31.8717 330.809 28.8669 330.809 25.6H329.809C329.809 28.9891 330.417 32.1283 331.64 35.0113L332.561 34.6207ZM330.809 25.6C330.809 22.3331 331.395 19.3283 332.561 16.5793L331.64 16.1887C330.417 19.0717 329.809 22.2109 329.809 25.6H330.809ZM332.558 16.5851C333.769 13.83 335.458 11.4321 337.627 9.38789L336.942 8.6601C334.674 10.7972 332.907 13.306 331.643 16.1829L332.558 16.5851ZM337.627 9.38789C339.797 7.34387 342.343 5.75636 345.272 4.6265L344.913 3.6935C341.869 4.86763 339.21 6.52279 336.942 8.6601L337.627 9.38789ZM345.272 4.6265C348.197 3.49861 351.378 2.932 354.821 2.932V1.932C351.266 1.932 347.962 2.51738 344.913 3.6935L345.272 4.6265ZM354.821 2.932C358.307 2.932 361.487 3.49891 364.366 4.62562L364.731 3.69437C361.722 2.51709 358.417 1.932 354.821 1.932V2.932ZM364.369 4.6265C367.297 5.75607 369.821 7.34267 371.946 9.38455L372.639 8.66345C370.412 6.524 367.773 4.86793 364.728 3.6935L364.369 4.6265ZM371.95 9.38789C374.119 11.4321 375.808 13.83 377.019 16.5851L377.934 16.1829C376.67 13.306 374.903 10.7972 372.635 8.6601L371.95 9.38789ZM377.02 16.5877C378.226 19.2902 378.833 22.2918 378.833 25.6H379.833C379.833 22.1669 379.202 19.0244 377.933 16.1803L377.02 16.5877ZM378.833 25.6C378.833 28.8644 378.226 31.8896 377.018 34.6814L377.935 35.0786C379.202 32.153 379.833 28.9916 379.833 25.6H378.833ZM377.019 34.6789C375.808 37.434 374.119 39.8319 371.95 41.8761L372.635 42.6039C374.903 40.4668 376.67 37.958 377.934 35.0811L377.019 34.6789ZM371.95 41.8759C369.824 43.8765 367.299 45.4431 364.369 46.5735L364.728 47.5065C367.771 46.3329 370.409 44.6995 372.635 42.6041L371.95 41.8759ZM364.366 46.5744C361.486 47.7014 358.327 48.268 354.885 48.268V49.268C358.439 49.268 361.723 48.6826 364.731 47.5056L364.366 46.5744ZM354.821 40.436C356.883 40.436 358.784 40.0846 360.514 39.3746L360.135 38.4494C358.537 39.1047 356.768 39.436 354.821 39.436V40.436ZM360.51 39.3762C362.279 38.6688 363.829 37.6502 365.158 36.3216L364.451 35.6144C363.22 36.8458 361.784 37.7898 360.139 38.4478L360.51 39.3762ZM365.158 36.3216C366.489 34.9908 367.507 33.417 368.214 31.6058L367.283 31.2422C366.624 32.9296 365.68 34.3852 364.451 35.6144L365.158 36.3216ZM368.21 31.6155C368.964 29.7982 369.337 27.7908 369.337 25.6H368.337C368.337 27.6759 367.984 29.5511 367.287 31.2325L368.21 31.6155ZM369.337 25.6C369.337 23.4092 368.964 21.4018 368.21 19.5845L367.287 19.9675C367.984 21.6489 368.337 23.5241 368.337 25.6H369.337ZM368.214 19.5942C367.507 17.783 366.489 16.2092 365.158 14.8784L364.451 15.5856C365.68 16.8148 366.624 18.2704 367.283 19.9578L368.214 19.5942ZM365.164 14.8845C363.876 13.5521 362.344 12.5318 360.574 11.8238L360.203 12.7522C361.846 13.4096 363.258 14.3519 364.445 15.5795L365.164 14.8845ZM360.574 11.8238C358.803 11.1154 356.884 10.764 354.821 10.764V11.764C356.768 11.764 358.56 12.0953 360.203 12.7522L360.574 11.8238ZM354.821 10.764C352.757 10.764 350.838 11.1154 349.067 11.8238L349.438 12.7522C351.081 12.0953 352.873 11.764 354.821 11.764V10.764ZM349.063 11.8254C347.337 12.5334 345.809 13.5519 344.483 14.8784L345.19 15.5856C346.424 14.3521 347.84 13.4079 349.442 12.7506L349.063 11.8254ZM344.483 14.8784C343.154 16.207 342.116 17.7774 341.367 19.5845L342.29 19.9675C342.992 18.2759 343.959 16.817 345.19 15.5856L344.483 14.8784ZM341.363 19.5942C340.655 21.4088 340.305 23.4129 340.305 25.6H341.305C341.305 23.5205 341.637 21.6418 342.294 19.9578L341.363 19.5942ZM340.305 25.6C340.305 27.746 340.655 29.7482 341.361 31.602L342.296 31.246C341.637 29.5158 341.305 27.6353 341.305 25.6H340.305ZM341.367 31.6155C342.114 33.4191 343.129 34.9876 344.413 36.3155L345.132 35.6205C343.941 34.3884 342.993 32.9276 342.29 31.2325L341.367 31.6155ZM344.419 36.3216C345.748 37.6502 347.298 38.6688 349.067 39.3762L349.438 38.4478C347.793 37.7898 346.357 36.8458 345.126 35.6144L344.419 36.3216ZM349.067 39.3762C350.838 40.0846 352.757 40.436 354.821 40.436V39.436C352.873 39.436 351.081 39.1047 349.438 38.4478L349.067 39.3762ZM399.029 47.04L398.849 47.5065L398.851 47.5073L399.029 47.04ZM391.22 42.176L390.874 42.5366L390.878 42.5399L391.22 42.176ZM386.101 34.816L385.64 35.0113L385.643 35.0171L386.101 34.816ZM386.101 16.384L385.643 16.1828L385.64 16.1887L386.101 16.384ZM399.093 4.16L398.913 3.6935L398.913 3.6935L399.093 4.16ZM418.549 4.16L418.366 4.62562L418.369 4.6265L418.549 4.16ZM426.293 9.024L425.946 9.38457L425.95 9.38789L426.293 9.024ZM431.477 16.384L431.019 16.5851L431.02 16.5877L431.477 16.384ZM431.477 34.88L431.934 35.0811L431.935 35.0786L431.477 34.88ZM426.293 42.24L426.635 42.6041L426.635 42.6039L426.293 42.24ZM418.549 47.04L418.369 46.5735L418.366 46.5744L418.549 47.04ZM414.325 38.912L414.139 38.4477L414.135 38.4494L414.325 38.912ZM418.805 35.968L418.451 35.6144L418.451 35.6144L418.805 35.968ZM421.749 31.424L421.287 31.2324L421.283 31.2422L421.749 31.424ZM421.749 19.776L421.283 19.9578L421.287 19.9675L421.749 19.776ZM418.805 15.232L418.445 15.5796L418.451 15.5856L418.805 15.232ZM414.389 12.288L414.203 12.7522L414.203 12.7522L414.389 12.288ZM403.253 12.288L403.067 11.8237L403.063 11.8254L403.253 12.288ZM398.837 15.232L399.19 15.5856L399.19 15.5856L398.837 15.232ZM395.829 19.776L395.367 19.5844L395.363 19.5942L395.829 19.776ZM395.829 31.424L395.361 31.602L395.364 31.6088L395.367 31.6155L395.829 31.424ZM398.773 35.968L398.413 36.3156L398.419 36.3216L398.773 35.968ZM403.253 38.912L403.067 39.3762L403.067 39.3762L403.253 38.912ZM408.885 48.268C405.398 48.268 402.174 47.7011 399.206 46.5727L398.851 47.5073C401.942 48.6829 405.288 49.268 408.885 49.268V48.268ZM399.208 46.5735C396.279 45.4436 393.733 43.8561 391.563 41.8121L390.878 42.5399C393.146 44.6772 395.805 46.3324 398.849 47.5065L399.208 46.5735ZM391.567 41.8154C389.439 39.771 387.77 37.3721 386.558 34.6149L385.643 35.0171C386.906 37.8919 388.65 40.3997 390.874 42.5366L391.567 41.8154ZM386.561 34.6207C385.395 31.8717 384.809 28.8669 384.809 25.6H383.809C383.809 28.9891 384.417 32.1283 385.64 35.0113L386.561 34.6207ZM384.809 25.6C384.809 22.3331 385.395 19.3283 386.561 16.5793L385.64 16.1887C384.417 19.0717 383.809 22.2109 383.809 25.6H384.809ZM386.558 16.5851C387.769 13.83 389.458 11.4321 391.627 9.38789L390.942 8.6601C388.674 10.7972 386.907 13.306 385.643 16.1829L386.558 16.5851ZM391.627 9.38789C393.797 7.34387 396.343 5.75636 399.272 4.6265L398.913 3.6935C395.869 4.86763 393.21 6.52279 390.942 8.6601L391.627 9.38789ZM399.272 4.6265C402.197 3.49861 405.378 2.932 408.821 2.932V1.932C405.266 1.932 401.962 2.51738 398.913 3.6935L399.272 4.6265ZM408.821 2.932C412.307 2.932 415.487 3.49891 418.366 4.62562L418.731 3.69437C415.722 2.51709 412.417 1.932 408.821 1.932V2.932ZM418.369 4.6265C421.297 5.75607 423.821 7.34267 425.946 9.38455L426.639 8.66345C424.412 6.524 421.773 4.86793 418.728 3.6935L418.369 4.6265ZM425.95 9.38789C428.119 11.4321 429.808 13.83 431.019 16.5851L431.934 16.1829C430.67 13.306 428.903 10.7972 426.635 8.6601L425.95 9.38789ZM431.02 16.5877C432.226 19.2902 432.833 22.2918 432.833 25.6H433.833C433.833 22.1669 433.202 19.0244 431.933 16.1803L431.02 16.5877ZM432.833 25.6C432.833 28.8644 432.226 31.8896 431.018 34.6814L431.935 35.0786C433.202 32.153 433.833 28.9916 433.833 25.6H432.833ZM431.019 34.6789C429.808 37.434 428.119 39.8319 425.95 41.8761L426.635 42.6039C428.903 40.4668 430.67 37.958 431.934 35.0811L431.019 34.6789ZM425.95 41.8759C423.824 43.8765 421.299 45.4431 418.369 46.5735L418.728 47.5065C421.771 46.3329 424.409 44.6995 426.635 42.6041L425.95 41.8759ZM418.366 46.5744C415.486 47.7014 412.327 48.268 408.885 48.268V49.268C412.439 49.268 415.723 48.6826 418.731 47.5056L418.366 46.5744ZM408.821 40.436C410.883 40.436 412.784 40.0846 414.514 39.3746L414.135 38.4494C412.537 39.1047 410.768 39.436 408.821 39.436V40.436ZM414.51 39.3762C416.279 38.6688 417.829 37.6502 419.158 36.3216L418.451 35.6144C417.22 36.8458 415.784 37.7898 414.139 38.4478L414.51 39.3762ZM419.158 36.3216C420.489 34.9908 421.507 33.417 422.214 31.6058L421.283 31.2422C420.624 32.9296 419.68 34.3852 418.451 35.6144L419.158 36.3216ZM422.21 31.6155C422.964 29.7982 423.337 27.7908 423.337 25.6H422.337C422.337 27.6759 421.984 29.5511 421.287 31.2325L422.21 31.6155ZM423.337 25.6C423.337 23.4092 422.964 21.4018 422.21 19.5845L421.287 19.9675C421.984 21.6489 422.337 23.5241 422.337 25.6H423.337ZM422.214 19.5942C421.507 17.783 420.489 16.2092 419.158 14.8784L418.451 15.5856C419.68 16.8148 420.624 18.2704 421.283 19.9578L422.214 19.5942ZM419.164 14.8845C417.876 13.5521 416.344 12.5318 414.574 11.8238L414.203 12.7522C415.846 13.4096 417.258 14.3519 418.445 15.5795L419.164 14.8845ZM414.574 11.8238C412.803 11.1154 410.884 10.764 408.821 10.764V11.764C410.768 11.764 412.56 12.0953 414.203 12.7522L414.574 11.8238ZM408.821 10.764C406.757 10.764 404.838 11.1154 403.067 11.8238L403.438 12.7522C405.081 12.0953 406.873 11.764 408.821 11.764V10.764ZM403.063 11.8254C401.337 12.5334 399.809 13.5519 398.483 14.8784L399.19 15.5856C400.424 14.3521 401.84 13.4079 403.442 12.7506L403.063 11.8254ZM398.483 14.8784C397.154 16.207 396.116 17.7774 395.367 19.5845L396.29 19.9675C396.992 18.2759 397.959 16.817 399.19 15.5856L398.483 14.8784ZM395.363 19.5942C394.655 21.4088 394.305 23.4129 394.305 25.6H395.305C395.305 23.5205 395.637 21.6418 396.294 19.9578L395.363 19.5942ZM394.305 25.6C394.305 27.746 394.655 29.7482 395.361 31.602L396.296 31.246C395.637 29.5158 395.305 27.6353 395.305 25.6H394.305ZM395.367 31.6155C396.114 33.4191 397.129 34.9876 398.413 36.3155L399.132 35.6205C397.941 34.3884 396.993 32.9276 396.29 31.2325L395.367 31.6155ZM398.419 36.3216C399.748 37.6502 401.298 38.6688 403.067 39.3762L403.438 38.4478C401.793 37.7898 400.357 36.8458 399.126 35.6144L398.419 36.3216ZM403.067 39.3762C404.838 40.0846 406.757 40.436 408.821 40.436V39.436C406.873 39.436 405.081 39.1047 403.438 38.4478L403.067 39.3762ZM441.125 48H440.625V48.5H441.125V48ZM441.125 3.2V2.7H440.625V3.2H441.125ZM451.493 3.2H451.993V2.7H451.493V3.2ZM451.493 39.552H450.993V40.052H451.493V39.552ZM473.957 39.552H474.457V39.052H473.957V39.552ZM473.957 48V48.5H474.457V48H473.957ZM441.625 48V3.2H440.625V48H441.625ZM441.125 3.7H451.493V2.7H441.125V3.7ZM450.993 3.2V39.552H451.993V3.2H450.993ZM451.493 40.052H473.957V39.052H451.493V40.052ZM473.457 39.552V48H474.457V39.552H473.457ZM473.957 47.5H441.125V48.5H473.957V47.5Z" fill="#484848" mask="url(#path-1-outside-1_580_3)"/>
</g>
<defs>
<filter id="filter0_d_580_3" x="0.812012" y="0.932007" width="476.645" height="51.336" filterUnits="userSpaceOnUse" color-interpolation-filters="sRGB">
<feFlood flood-opacity="0" result="BackgroundImageFix"/>
<feColorMatrix in="SourceAlpha" type="matrix" values="0 0 0 0 0 0 0 0 0 0 0 0 0 0 0 0 0 0 127 0" result="hardAlpha"/>
<feOffset dx="1" dy="1"/>
<feGaussianBlur stdDeviation="1"/>
<feComposite in2="hardAlpha" operator="out"/>
<feColorMatrix type="matrix" values="0 0 0 0 0 0 0 0 0 0 0 0 0 0 0 0 0 0 0.2 0"/>
<feBlend mode="normal" in2="BackgroundImageFix" result="effect1_dropShadow_580_3"/>
<feBlend mode="normal" in="SourceGraphic" in2="effect1_dropShadow_580_3" result="shape"/>
</filter>
</defs>
</svg>
